<svg id="Layer_1" data-name="Layer 1" xmlns="http://www.w3.org/2000/svg" viewBox="0 0 741.73 517.25"><defs><style>.cls-1{fill:#ffb000;}.cls-2{fill:#d84200;}.cls-3{fill:#b55f19;}.cls-4{fill:#f9f9f9;}.cls-5{fill:#f50;}</style></defs><path class="cls-1" d="M584.12,126.84c.86-.74,1.7-1.5,2.51-2.3C585.82,125.34,585,126.1,584.12,126.84Z"/><path class="cls-1" d="M488.77,215.28c1.09,0,2.17,0,3.24,0C490.94,215.27,489.86,215.29,488.77,215.28Z"/><path class="cls-2" d="M689,198.84a6,6,0,0,1,2.6-.89,13.09,13.09,0,0,1,3.19,0c1.11.13,2.14.27,3.08.42,1.6.25,3.22.55,4.86.88s3.34.64,5.13.93a36.45,36.45,0,0,0,6.71.38h.07a30,30,0,0,1,11.9,2.21,11.85,11.85,0,0,1,3.23,1.66,6.27,6.27,0,0,1,1.57,2.41,7.68,7.68,0,0,1,.3,2.79c-.07,1-.17,1.84-.29,2.65a9.64,9.64,0,0,1-2.43,5.06,14.62,14.62,0,0,1-4.65,3.37,20.57,20.57,0,0,1-5.79,1.65,20.07,20.07,0,0,1-5.85,0,45.86,45.86,0,0,1-8.8-2.4,41.66,41.66,0,0,1-8.54-4.31,23.76,23.76,0,0,1-6.19-5.76,19.93,19.93,0,0,1-1.67-2.66,7,7,0,0,1,.64-7.49A4.28,4.28,0,0,1,689,198.84Z"/><path class="cls-2" d="M737.65,141.39a14.56,14.56,0,0,0,2.69-3.42,12.66,12.66,0,0,0,1.25-3.33,6.63,6.63,0,0,0-1.37-5.49,17.15,17.15,0,0,0-11.77-6.93,45.76,45.76,0,0,0-16.36.65,81.24,81.24,0,0,0-17.55,5.88,89,89,0,0,0-15.29,8.83,39,39,0,0,0-8,8,39.73,39.73,0,0,0-5.61,10.22,28,28,0,0,0-1.7,11A18.54,18.54,0,0,0,667.59,177c.94,1.28,2,2.62,3.25,4a15.07,15.07,0,0,0,4.25,3.38,9.89,9.89,0,0,0,3.79,1.08,9.4,9.4,0,0,0,2.84.28,11.26,11.26,0,0,0,5.88-2.51,72.82,72.82,0,0,0,10.11-9,70.76,70.76,0,0,1,9.67-8.71q4.23-3.11,8.27-5.8t7.83-5.48l0,0a74.85,74.85,0,0,0,8.07-6.91Z"/><path class="cls-2" d="M480.45,197.85a226.66,226.66,0,0,1,62.68-21.45c19.88-3.68,43.43-8,54.76-9.76a153.1,153.1,0,0,1,33.37-2c6.65.41,13.43,1,19.3,4.79h0c14.37,8.24,20.48,21,20.1,37.17.16,14.33-6,25.53-16.66,34.79a512.07,512.07,0,0,1-74.13,53.31,198.23,198.23,0,0,0-17.2,11.53c-1.28-.28-2.55-.55-3.82-.85-4.86-1.13-9.7-2.41-14.47-3.87s-9.33-3-13.88-4.85c-1.24-.5-2.46-1-3.69-1.56-2,1.21-4,2.44-5.95,3.63-24.17,14.43-43.83,33.34-60.19,56-14.12,19.57-27.22,39.88-44.21,57.29-21.42,22-45.07,40.86-72.34,55.06-12,6.25,14.9,8.84,2.25,12.84l-18.88,6.87-33.75,9.6-16.55,5.54-4.3.4a25.87,25.87,0,0,1-17.21,6.55l-5.56-.21L54,468.39,11.81,444.33a23.38,23.38,0,0,1-10.25-28.7h0c8.83-26,21-68.23,25-79,4.75-12.64,5.91-25.95,7-39.27,1.34-16.51,2.91-33,4.34-49.52,1.12-12.91,2.18-25.83,3.28-38.74,1-12.14,2.8-24.22,2.88-36.44,0-4.75-.35-9.51.3-14.24.41-3.7.69-7.41,1.25-11.09,1.75-11.63,4.74-22.85,11.29-32.83,8.51-13,21-20.16,35.65-23.77,16.83-4.16,31.49-11.59,44-23.93,10-9.9,22.9-15.28,37-16.24,14.32-1,27.37-4.8,38.88-13.32A56.92,56.92,0,0,1,217.19,34c22.55-13.37,45.75-12.14,69.16-3.95a8.5,8.5,0,0,0,6.5-.11c20.88-8.17,41.8-16.22,62.69-24.35,10.16-4,20.61-6.76,31.55-5,11.62,1.84,23.23,4,34.66,6.82,28,6.85,55.91,14.45,81.93,27.12,25,12.17,49.61,25.2,74.54,37.56a76.67,76.67,0,0,1,21.1,15.32c16.5,17,11.21,39.77-9.65,50.25a25.36,25.36,0,0,1-9.9,3.81c-17.77,3.43-35.43,2.48-53.07-1.19-20.36-4.23-39.7-11.6-59-19.19-15.13-6-30.39-11-46.93-9.58-6.73.55-13.64,1.17-17.88,7.71,5.06,3.7,10.16,7.35,14.53,11.88,7.84,8.13,13.17,17.51,14.1,29h0c1,2.77.52,5.62.4,8.45l-.3,1.53-.09,1.9a7.84,7.84,0,0,1-.68,4.64c0,4.73-1.57,9.19-2.54,13.75-2,9.47-4.2,18.91-6.31,28.37-.15.32-.29.65-.43,1l.06.06a122.46,122.46,0,0,1-11.33,34.12c2.13-1,3.39-1.58,4.64-2.18,10.32-4.93,17.89-13.13,25.66-21.2,12-12.4,25-23.62,39.8-32.6Z"/><path class="cls-3" d="M479.59,221.25c-.14.33-.29.66-.43,1C479.3,221.91,479.45,221.58,479.59,221.25Z"/><path class="cls-4" d="M645.72,182c-4.33,6.42-10.81,8.64-18.1,9.15-14.53,1-29.17.94-43.42,4.63C567.69,200,552,206.12,538.28,216.51h0c-1.41.87-2.91,1.62-4.22,2.62-10.72,8.12-19.82,17.83-28.1,28.38-13.55,17.27-31.41,28.05-52.25,34.23-11.72,3.48-23.88,2.72-35.87,3.55-13.4.93-25.08,5-33,16.66a80,80,0,0,1-13.4,14.83,61.55,61.55,0,0,1-37.73,15.49c-17.77,1.13-34.32-3.66-49.88-11.91-5.62-3-11.27-5-17.66-4.07-4.48.62-8.94-.16-13.41-.07a120.36,120.36,0,0,1-32.33-4c-16.85-4.26-31.74-11.24-39.1-28.52-2.06-6.73-1.71-13.66-1.83-20.56-.11-6.55,2.58-12,6.43-16.87,4.7-6,4.79-7.21-.57-12.54-1.91-1.9-3.92-3.72-5.65-5.77,0,0-4.34-5.8.74-9.77a7.3,7.3,0,0,1,6-1.3,33.94,33.94,0,0,1,5.25,1.56c11,4.07,21.87,8.65,33.63,2.31,1.9-1,3.76-.48,3.76,2.56a73.11,73.11,0,0,0,.63,9.92c.52,3.84-1,5.74-4.6,6.64-6.85,1.73-13.53,3.89-19.58,7.75-9.49,6.06-13.07,14.88-11.93,25.68,1,9.84,6.94,15.9,16.1,19.16,13.49,4.81,27.52,5.59,41.64,5.86,6.51,0,13,.72,19.53-.53a19.67,19.67,0,0,0,9.38-4.15c4.74-4.09,9.39-8.34,13.74-12.84,4.73-4.89,5.78-11.28,6-17.76.38-11.53.33-23.07,1-34.57.37-6.27.58-12.52.46-18.79h0c-.21-8.91-2.83-16.68-9.43-23.16-21.31-20.94-45.6-37.78-71.31-52.75-7-4.06-14-8.13-20.82-12.43-2.5-1.57-4.86-3.77-3.56-7.29s4.13-5,8-4.76a13,13,0,0,1,5.35,1.59c6.85,3.6,13.82,7,20.56,10.78,26.69,15,51.86,32.12,74.32,53.18,9.26,8.68,13.83,18.79,14.84,31,0,6.69.05,13.38-.06,20.06-.2,13,0,26-.91,38.89-1,13.52-6.73,24.91-18.24,32.81a13.06,13.06,0,0,0-3.72,3.57,6.09,6.09,0,0,0,3.09,9.27c23.58,9.09,46.21,8.66,67.2-7.32,12.9-9.82,19.2-23.33,22.07-38.85,3-16.12,4.58-32.41,6.28-48.7,1.1-10.46,1.38-21,2-31.42h0c-.1-7.93-1.49-15.5-5.52-22.49s-10.73-11.32-16.88-16.1C340.41,119.06,303.84,96.15,267,73.66c-2.55-1.56-4.87-3.19-3.66-6.68,1-2.75,4.27-4,7.87-3a18.16,18.16,0,0,1,3.16,1.41c9.69,4.77,19.26,9.74,28.66,15.07,30.52,17.3,60.49,35.45,88.32,57,9.56,7.38,17.47,15.75,20.77,27.84,1.79,6.55,2.05,13.14,2,19.82-1.13,11.78-.47,23.61-.85,35.4-.31,9.73-.92,19.45-1.43,29.17-.18,3.19.87,6.08,2.09,8.91,2.33,5.36,7.49,5.53,12.1,5.79,11.47.64,22.4-1.62,31.1-9.6,6.25-5.71,10.83-12.91,15.32-20.14,2.48-4,3.29-8.87,6.76-12.28l.37-1,6.85-52.46a42.6,42.6,0,0,0-11.24-35l-.19-.2c-4.37-4.53-9.47-8.18-14.53-11.88a8,8,0,0,1-3.44-1.61c-32.87-20.91-65.15-42.71-97.58-64.28a12.93,12.93,0,0,1-3.93-3.61c-5.45-2.83-10.8-5.89-16.37-8.47-12.36-5.72-25.42-6.94-38.68-4.5C291,41,282.91,46.18,275,51.39c-13.83,9.07-28.83,14.12-45.55,14.11-5.74,0-11.34,1.7-16.66,4.08-8.65,3.85-14.26,11.25-20.59,17.73a54.19,54.19,0,0,1-19.88,11.91c-6.81,2-13.73,3.64-20.39,6.16-8,3-15.55,6.55-22,12.31-9.94,8.85-13.89,20.69-16.66,33.06-2,9.06-3.53,18.24-5.26,27.38-.34,13.09-.64,26.18-1,39.27-.2,6.67-.47,13.34-.88,20q-1.78,29.36-3.75,58.71c-.65,9.57-1.53,19.13-3,28.61A111,111,0,0,1,88,359.3C81.18,372.12,61.07,455.11,53.55,469c8.7,12.34,29.75,11.51,40.54,22,28,27.06,64.92-4.42,151.22,20.79l20.22-10.3c-49.48-10.32,11.57-10.86,17.17-12,14.1-2.93-1-7.75,13.28-8.73,14.84-1,29.67-1.94,44.44-3.89,27.21-3.58,53.24-10.84,77.49-24,22.25-12,40.91-28.27,56.58-48.06,14.35-18.14,25.16-38.44,36.31-58.57,6.41-11.58,14-22.47,23.88-31.47,12.81-11.62,27.55-20.61,41.79-30.27,19.14-13,39-24.88,57.63-38.62,5.86-4.33,11.57-8.92,15.52-15.25,1.7-1.13,2.16-3.08,3-4.72,2.65-4.91,6.54-8,12.19-8.54C665.22,201.92,659.4,189.82,645.72,182Z"/><path class="cls-4" d="M391.22,47.45c8.89,12.06,21.06,16.43,35.73,16.47,39.2.09,74.44,12.45,106,35.6a458.81,458.81,0,0,0,41,26.41c1.24.72,2.48,1.36,3.13,2.73l.24.05h.24a1.57,1.57,0,0,1,1.78.69c9.09,3.64,18.73,4.71,28.3,6.25,8.29,1.34,16.25.33,24.19-1.81a20.83,20.83,0,0,1,5.32-.55c3.11-2.78,6.45-5.19,9.19-8.52,7.23-8.76,4.31-22.64-4.44-29.37C632.52,88.2,621.8,83.54,611.07,79c-17.53-7.37-34.68-15.39-50.81-25.52-13.07-8.21-27.53-13-42.36-16.84-20.17-5.29-40.23-11-60.39-16.35a112.18,112.18,0,0,0-16.88-3.41c-6.56-.71-13,.87-19.16,3.15-9.86,3.65-19.46,7.94-29,12.25-4.66,2.1-7.33,6-5.85,9.06C387.67,43.63,389.7,45.4,391.22,47.45Z"/><path class="cls-5" d="M65.24,481.77a100.65,100.65,0,0,0,57,25.7l.46,0c17,1.7,34.21.6,51.3,1.31q6.27.26,12.53.83,3.13.29,6.25.65l2.91.36.72.09,1.37.2c8.36,1.21,16.54,3.11,24.81,4.72,8.85,1.73,18,2.52,26.62-.27a35.59,35.59,0,0,0,3.7-1.47c7.2-3.22,35.48-15.47,52-17.27C338.82,493,371.52,485.3,402,469.44c27.26-14.2,50.91-33.1,72.33-55.06,17-17.41,30.09-37.72,44.21-57.28,16.37-22.68,36-41.6,60.19-56a487.29,487.29,0,0,0,70.59-50.77c10.1-8.8,16-19.44,15.86-33.05l-.07-.07c-5.61.6-7.68,1.76-11.87,7.09-7.78,9.87-76.44,60-76.44,60C562.55,294,547.81,303,535,314.58c-9.91,9-17.47,19.88-23.88,31.46-11.15,20.13-22,40.44-36.31,58.57-15.67,19.79-34.33,36-56.58,48.06-24.25,13.13-50.28,20.39-77.49,24-14.77,1.95-29.64,2.42-44.44,3.9-20.33,2-43,10.24-56.3,15.67a42.18,42.18,0,0,1-24.92,2.21c-1.53-.33-3-.69-4.57-1a280.11,280.11,0,0,0-30.69-3.77c-16.38-1.06-32.81-.12-49.2-1-3.83-.21-7.65-.52-11.46-1l-.47-.07-1.6-.24c-.8-.13-1.6-.26-2.4-.41-2-.36-4-.79-5.94-1.27a92.08,92.08,0,0,1-9-2.75l-2.21-.83-1.3-.53q-2.14-.93-4.25-2a95.17,95.17,0,0,1-9.68-5.49q-2.27-1.47-4.44-3.06l-1.08-.8-.12-.1c-.68-.54-1.35-1.07-2-1.63a94.07,94.07,0,0,1-8.11-7.61q-1.85-2-3.59-4c-.57-.68-1.12-1.39-1.69-2.08l-1-1.4h0a4.16,4.16,0,0,1-.6-3.74c9.12-28.4,23-83.18,28.57-94.25a112.45,112.45,0,0,0,10.71-30.66,296.83,296.83,0,0,0,3.77-32.84q2-29.34,3.75-58.71c.41-6.66.68-13.33.87-20,.33-10.92.6-21.84.87-32.76a82.71,82.71,0,0,1,1.3-12.65c1.3-7.1,2.55-14.21,4.13-21.24,2.77-12.37,6.72-24.21,16.65-33.06,6.46-5.76,14.05-9.31,22-12.31,6.66-2.51,13.58-4.16,20.39-6.16,6.32-1.85,15.28-7.19,19.88-11.91,6.33-6.48,11.94-13.87,20.59-17.73,5.32-2.37,10.92-4.08,16.66-4.08,16.72,0,31.72-5,45.55-14.1,8-5.22,16.06-10.39,25.53-12.14,13.26-2.44,26.32-1.22,38.68,4.5,3.19,1.48,6.3,3.11,9.4,4.77a68,68,0,0,1,9.43,6.27c.47.36,1,.7,1.46,1,32.44,21.57,64.4,43.56,97.27,64.47a8,8,0,0,0,3.44,1.61c4.24-6.54,11.47-7.35,18.21-7.9,16.53-1.37,31.79,3.61,46.92,9.58,19.25,7.59,38.59,15,59,19.19,17.63,3.67,35.29,4.62,53.06,1.19a25.36,25.36,0,0,0,9.9-3.81c20.86-10.48,26.15-33.24,9.65-50.25a76.67,76.67,0,0,0-21.1-15.32C611.15,62.05,586.55,49,561.54,36.85c-26-12.67-53.91-20.27-81.92-27.12-11.44-2.79-23.05-5-34.67-6.82C434,1.19,423.57,4,413.4,7.94c-20.89,8.13-41.81,16.18-62.68,24.35a8.53,8.53,0,0,1-6.51.11C320.8,24.21,297.6,23,275,36.36c-1.64,1-3.18,2.13-4.72,3.27C258.81,48.15,245.77,52,231.44,53c-14.1,1-27,6.34-37,16.24-12.51,12.34-27.17,19.77-44,23.93-14.62,3.61-27.14,10.8-35.65,23.77-6.55,10-9.54,21.21-11.29,32.83-.56,3.68-.84,7.39-1.25,11.09-.65,4.74-.27,9.49-.3,14.24-.08,12.22-1.85,24.3-2.88,36.44-1.1,12.91-2.15,25.83-3.28,38.75-1.43,16.5-3,33-4.34,49.51-1.08,13.32-2.24,26.63-7,39.27-3.74,10-14.4,46.72-23,72.77-5.77,17.54-11.75,33.88-15.72,51.91Zm168.2,20M392.74,32.14c10.72-4.82,21.45-9.62,32.55-13.52a35.43,35.43,0,0,1,15.3-1.93,110.79,110.79,0,0,1,17.24,3.45C478,25.5,498.05,31.21,518.22,36.5c14.83,3.89,29.28,8.62,42.36,16.83,16.13,10.13,33.28,18.15,50.81,25.52,10.73,4.51,21.45,9.16,30.82,16.37,8.75,6.72,11.67,20.6,4.44,29.37a42.37,42.37,0,0,1-5.2,5.1,17.31,17.31,0,0,1-8.25,3.72c-.35.07-.7.14-1.06.24-7.94,2.14-15.9,3.15-24.19,1.81-9.57-1.54-19.21-2.61-28.3-6.25a20.45,20.45,0,0,1-3.45-2.05C574.6,126,573,125,571.27,124a442.79,442.79,0,0,1-38-24.65c-31.52-23.15-66.76-35.52-106-35.61-14.67,0-26.84-4.4-35.73-16.47-1.52-2-3.55-3.82-4.64-6.06C385.42,38.13,388.09,34.23,392.74,32.14ZM76.6,474.14Z"/><path class="cls-5" d="M179.77,262.92c.12,6.91-.23,13.83,1.83,20.56,7.36,17.28,22.25,24.26,39.1,28.53A121.17,121.17,0,0,0,253,316c4.47-.1,8.93.69,13.41.06,6.39-.88,12,1.09,17.66,4.07,15.56,8.25,32.11,13.05,49.88,11.91a61.55,61.55,0,0,0,37.73-15.49,80,80,0,0,0,13.4-14.83c8-11.69,19.65-15.73,33.05-16.66,12-.83,24.15-.07,35.87-3.55,20.83-6.18,38.69-17,52.25-34.22,8.28-10.56,17.38-20.27,28.1-28.39,1.31-1,2.81-1.75,4.22-2.62,13.74-10.39,29.41-16.47,45.92-20.75,14.25-3.7,28.89-3.63,43.42-4.64,7.29-.51,13.77-2.73,18.1-9.15-5.6-3.65-12-4.17-18.39-4.56a145.34,145.34,0,0,0-31.77,1.95,157.38,157.38,0,0,0-57.57,21.07c-14.8,9-27.83,20.2-39.8,32.6-7.77,8.07-15.34,16.27-25.66,21.2-1.25.6-2.51,1.18-4.64,2.18a122.46,122.46,0,0,0,11.33-34.12c-3.47,3.4-4.28,8.28-6.76,12.28-4.49,7.22-9.07,14.42-15.32,20.14-8.7,8-19.63,10.23-31.1,9.59-4.61-.26-9.77-.43-12.1-5.79-1.22-2.82-2.27-5.72-2.1-8.91.52-9.72,1.13-19.44,1.44-29.16.38-11.8-.28-23.63.85-35.41,0-6.68-.22-13.27-2-19.82-3.3-12.09-11.21-20.46-20.77-27.84-27.83-21.49-57.8-39.65-88.32-56.95-9.4-5.32-19-10.3-28.66-15.07a17.39,17.39,0,0,0-3.16-1.4c-3.6-1-6.91.28-7.87,3-1.22,3.49,1.11,5.12,3.66,6.68,36.84,22.49,73.41,45.4,107.59,71.89,6.15,4.77,12.82,9,16.88,16.09s5.42,14.57,5.52,22.49c-.63,10.48-.9,21-2,31.42-1.71,16.29-3.3,32.58-6.28,48.7-2.87,15.53-9.17,29-22.07,38.85-21,16-43.62,16.41-67.2,7.32a6.08,6.08,0,0,1-3.09-9.26,13.1,13.1,0,0,1,3.72-3.58c11.51-7.9,17.28-19.29,18.24-32.81.92-12.92.71-25.92.91-38.89.11-6.68,0-13.37,0-20.05-1-12.22-5.57-22.33-14.83-31-22.46-21-47.63-38.14-74.32-53.18-6.74-3.8-13.71-7.18-20.56-10.78a13.16,13.16,0,0,0-5.36-1.59c-3.82-.2-6.65,1.22-8,4.76s1.06,5.72,3.56,7.29C207,125.43,214,129.5,221,133.57c25.7,15,50,31.81,71.31,52.74,6.6,6.48,9.22,14.25,9.43,23.16.12,6.27-.1,12.52-.46,18.79-.68,11.5-.63,23.05-1,34.57-.21,6.48-1.26,12.87-6,17.76-4.35,4.5-9,8.75-13.74,12.84a19.71,19.71,0,0,1-9.38,4.15c-6.51,1.25-13,.56-19.53.53-14.12-.26-28.15-1.05-41.64-5.86-9.16-3.26-15.05-9.32-16.1-19.15-1.14-10.81,2.44-19.63,11.93-25.69,6-3.86,12.73-6,19.58-7.75,3.55-.9,5.12-2.8,4.6-6.64a73.11,73.11,0,0,1-.63-9.92c0-3-1.86-3.58-3.76-2.56-11.76,6.34-22.67,1.77-33.64-2.31a31.53,31.53,0,0,0-6-1.69,7,7,0,0,0-5.39,1.23c-3,2.32-3.5,6.51-.59,10,1.73,2,3.74,3.87,5.65,5.77,5.36,5.33,5.27,6.57.57,12.54C182.35,250.94,179.66,256.37,179.77,262.92Z"/><path class="cls-5" d="M655.17,285.76a5.55,5.55,0,0,1-.4,2.3,4.76,4.76,0,0,1-.86,1.36,3.3,3.3,0,0,1-1.26.8l2.6,7.33-4.38,1.59-1.67-7.69-.41,5.94-4-.25.08-5.53-1.75-.16.16-4.9h2.11l.25-8.37,1.12-.06h3.15a5.74,5.74,0,0,1,3.06.67,4,4,0,0,1,1.56,1.75,6.89,6.89,0,0,1,.58,2.45C655.14,283.88,655.17,284.81,655.17,285.76Zm-3.34.49a2,2,0,0,0-.33-1.23,2.17,2.17,0,0,0-.71-.63,2.39,2.39,0,0,0-1-.27l-.11,4.29a2.64,2.64,0,0,0,1.1-.22,2,2,0,0,0,.75-.63A2.09,2.09,0,0,0,651.83,286.25Z"/><path class="cls-5" d="M663.21,288.56a18.41,18.41,0,0,1-.84,5.43,15,15,0,0,1-2.64,5,12.59,12.59,0,0,1-4.65,3.57,12.76,12.76,0,0,1-5.81,1.07,13.82,13.82,0,0,1-5.6-1.55,17.15,17.15,0,0,1-4.5-3.43,16.55,16.55,0,0,1-4.54-10.1,13.94,13.94,0,0,1,3.84-10.8,14.74,14.74,0,0,1,10.8-4.67,14.57,14.57,0,0,1,5.86,1.32,13.07,13.07,0,0,1,4.62,3.66,15.27,15.27,0,0,1,2.65,5A18.16,18.16,0,0,1,663.21,288.56Zm-.31,0a11.12,11.12,0,0,0-1.28-5.11,12.26,12.26,0,0,0-3.34-3.9,15.21,15.21,0,0,0-4.32-2.32,13.43,13.43,0,0,0-4.69-.78,13.71,13.71,0,0,0-4.65.89,12.75,12.75,0,0,0-4,2.52,13.86,13.86,0,0,0-4.23,8.7,11.78,11.78,0,0,0,.69,5.08,11.37,11.37,0,0,0,2.85,4.31,11.25,11.25,0,0,0,4.45,2.55,13.91,13.91,0,0,0,4.94.54,16.34,16.34,0,0,0,9-3.44,12.42,12.42,0,0,0,3.33-3.92A10.9,10.9,0,0,0,662.9,288.56Z"/></svg>